<svg width="47" height="47" viewBox="0 0 47 47" fill="none" xmlns="http://www.w3.org/2000/svg">
<path d="M23.3347 0C10.468 0 0 10.4965 0 23.3981C0 36.2989 10.468 46.7963 23.3347 46.7963C36.2004 46.7963 46.6694 36.2989 46.6694 23.3981C46.6694 10.4965 36.2023 0 23.3347 0ZM29.1378 24.2219H25.3414C25.3414 30.3037 25.3414 37.7899 25.3414 37.7899H19.716C19.716 37.7899 19.716 30.3763 19.716 24.2219H17.0419V19.4265H19.716V16.3248C19.716 14.1034 20.7687 10.6322 25.3931 10.6322L29.5617 10.6482V15.3031C29.5617 15.3031 27.0286 15.3031 26.5361 15.3031C26.0436 15.3031 25.3433 15.5501 25.3433 16.6094V19.4275H29.6294L29.1378 24.2219Z" fill="white"/>
</svg>
