<svg width="47" height="47" viewBox="0 0 47 47" fill="none" xmlns="http://www.w3.org/2000/svg">
<path d="M23.3338 28.0822C25.9083 28.0822 28.0072 25.9814 28.0072 23.398C28.0072 22.3783 27.6744 21.4367 27.1236 20.6676C26.2749 19.4876 24.8951 18.7139 23.3367 18.7139C21.7773 18.7139 20.3984 19.4867 19.5478 20.6667C18.9951 21.4358 18.6652 22.3773 18.6643 23.3971C18.6614 25.9804 20.7584 28.0822 23.3338 28.0822Z" fill="white"/>
<path d="M33.5348 17.668V13.7416V13.1572L32.9492 13.1591L29.0354 13.1714L29.0504 17.683L33.5348 17.668Z" fill="white"/>
<path d="M23.3347 0C10.468 0 0 10.4965 0 23.3981C0 36.2989 10.468 46.7963 23.3347 46.7963C36.2004 46.7963 46.6694 36.2989 46.6694 23.3981C46.6694 10.4965 36.2023 0 23.3347 0ZM36.6056 20.6678V31.5629C36.6056 34.4007 34.3046 36.707 31.4764 36.707H15.193C12.3638 36.707 10.0638 34.4007 10.0638 31.5629V20.6678V15.2353C10.0638 12.3984 12.3638 10.0921 15.193 10.0921H31.4754C34.3046 10.0921 36.6056 12.3984 36.6056 15.2353V20.6678Z" fill="white"/>
<path d="M30.5938 23.3984C30.5938 27.4105 27.3379 30.6772 23.3347 30.6772C19.3316 30.6772 16.0766 27.4105 16.0766 23.3984C16.0766 22.4332 16.2683 21.5106 16.6105 20.668H12.6487V31.5631C12.6487 32.9712 13.7888 34.1116 15.1921 34.1116H31.4745C32.8759 34.1116 34.018 32.9712 34.018 31.5631V20.668H30.0543C30.3992 21.5106 30.5938 22.4332 30.5938 23.3984Z" fill="white"/>
</svg>
