<svg width="40" height="29" viewBox="0 0 40 29" fill="none" xmlns="http://www.w3.org/2000/svg">
<path d="M35.2524 -3.04937e-08H4.74766C2.12982 -3.04937e-08 0 1.95237 0 4.35209V24.6479C0 27.0476 2.12982 29 4.74766 29H35.2524C37.8703 29 40 27.0476 40 24.6479V4.35209C40 1.95237 37.8703 -3.04937e-08 35.2524 -3.04937e-08ZM35.2524 25.1578H4.74766C4.36285 25.1578 4.02536 24.9196 4.02536 24.6479V7.03589L17.8219 18.1542C18.1047 18.3822 18.4644 18.5077 18.8348 18.5077L21.1648 18.5078C21.535 18.5078 21.8949 18.3822 22.1778 18.1542L35.9749 7.03549V24.6481C35.9747 24.9196 35.6371 25.1578 35.2524 25.1578ZM20.0001 14.6927L6.58123 3.84219H33.4189L20.0001 14.6927Z" fill="#FE664E"/>
</svg>
