<svg width="35" height="35" viewBox="0 0 35 35" fill="none" xmlns="http://www.w3.org/2000/svg">
<path d="M34.9833 27.6218C35.0575 28.1903 34.8843 28.6847 34.4646 29.1048L29.5367 33.9987C29.3144 34.2459 29.0242 34.4562 28.666 34.629C28.3078 34.8021 27.9559 34.9133 27.6102 34.9627C27.5855 34.9627 27.5112 34.969 27.3876 34.9814C27.2643 34.9937 27.1038 35 26.9062 35C26.4367 35 25.6771 34.9197 24.6273 34.7589C23.5775 34.5982 22.2931 34.2027 20.774 33.5725C19.2547 32.9422 17.5318 31.9966 15.6052 30.7362C13.6785 29.4758 11.6282 27.7454 9.45451 25.5455C7.72541 23.84 6.29274 22.2086 5.15647 20.6515C4.02021 19.0942 3.10626 17.6545 2.41462 16.3321C1.72292 15.0097 1.20419 13.8109 0.858373 12.7357C0.512554 11.6605 0.27789 10.7336 0.154384 9.95496C0.0308767 9.17636 -0.018526 8.5646 0.00617534 8.11969C0.0308767 7.67478 0.0432274 7.4276 0.0432274 7.37816C0.0926301 7.03212 0.203786 6.6799 0.376696 6.32149C0.549606 5.96309 0.759567 5.67266 1.00658 5.4502L5.9345 0.519067C6.28032 0.173022 6.67555 -3.89985e-10 7.12017 -3.89985e-10C7.44129 -3.89985e-10 7.72535 0.0926905 7.97237 0.278072C8.21938 0.463453 8.42934 0.692089 8.60225 0.963981L12.5668 8.49045C12.7891 8.88593 12.8509 9.31849 12.7521 9.78812C12.6533 10.2578 12.4433 10.6532 12.1222 10.9746L10.3066 12.7913C10.2572 12.8407 10.214 12.9211 10.177 13.0323C10.1399 13.1435 10.1214 13.2362 10.1214 13.3104C10.2202 13.8294 10.4425 14.4226 10.7883 15.09C11.0847 15.6832 11.5417 16.4062 12.1593 17.259C12.7768 18.1117 13.6537 19.0942 14.7899 20.2065C15.9015 21.3436 16.8896 22.2271 17.7541 22.8575C18.6185 23.4876 19.3412 23.9512 19.9217 24.2478C20.5022 24.5445 20.9468 24.7237 21.2555 24.7853L21.7186 24.878C21.768 24.878 21.8484 24.8594 21.9595 24.8224C22.0706 24.7853 22.1509 24.7421 22.2004 24.6926L24.3123 22.5422C24.7571 22.1467 25.2756 21.949 25.8685 21.949C26.2886 21.949 26.6218 22.0231 26.8689 22.1715H26.9058L34.0568 26.3981C34.5757 26.7197 34.8845 27.1274 34.9833 27.6218Z" fill="#FE664E"/>
</svg>
