<svg width="47" height="47" viewBox="0 0 47 47" fill="none" xmlns="http://www.w3.org/2000/svg">
<path d="M23.3347 0C10.4277 0 0 10.456 0 23.3981C0 36.3402 10.4277 46.7963 23.3347 46.7963C36.2417 46.7963 46.6694 36.3402 46.6694 23.3981C46.6694 10.456 36.2417 0 23.3347 0ZM17.2093 10.6754L31.356 18.5723L27.4183 22.5207L15.1676 10.3098C15.8968 10.1636 16.626 10.2367 17.2093 10.6754ZM13.1258 34.6585V12.9421C13.1258 12.3572 13.3445 11.7722 13.6362 11.3335L26.1057 23.7637L13.6362 36.194C13.3445 35.7553 13.1258 35.2435 13.1258 34.6585ZM17.2093 36.8521C16.7718 37.1446 16.2614 37.2908 15.7509 37.2908C15.5322 37.2908 15.3134 37.2908 15.1676 37.2177L27.4183 25.0068L31.356 28.9552L17.2093 36.8521ZM36.5334 26.1036L32.9603 28.0778L28.6579 23.7637L32.9603 19.4497L36.5334 21.4239C37.4084 21.9358 37.9189 22.7401 37.9189 23.7637C37.9189 24.7874 37.4084 25.5917 36.5334 26.1036Z" fill="white"/>
</svg>
