<svg width="105" height="84" viewBox="0 0 105 84" fill="none" xmlns="http://www.w3.org/2000/svg">
<path d="M83.5328 5.17602C83.5999 2.01845 83.4792 0.0233156 83.4792 0.0233156L52.4367 2.47765e-07H52.2792H52.1217L21.0759 0.0233156C21.0759 0.0233156 20.9586 2.01845 21.0256 5.17602H0.461304V8.54676C0.461304 9.31617 0.591988 27.4656 11.861 37.4079C16.5623 41.5547 22.4263 43.6398 29.3391 43.6431C30.3846 43.6431 31.4602 43.5732 32.5493 43.4799C36.4765 48.8258 41.0136 52.5696 46.117 54.4348V69.2401H31.1352V78.513H26.186V83.7123H52.1217H52.4367H78.3725V78.5163H73.4199V69.2435H58.4381V54.4382C63.5382 52.5729 68.0786 48.8291 72.0058 43.4832C73.1016 43.5765 74.1772 43.6431 75.2227 43.6431C82.1322 43.6365 87.9962 41.5547 92.6975 37.4046C103.966 27.4622 104.097 9.31284 104.097 8.54343V5.17602H83.5328ZM16.3847 32.3818C9.94763 26.7195 8.04433 17.0269 7.48139 11.9175H21.4143C22.0041 18.2826 23.3913 26.2132 26.5914 33.1845C27.1778 34.4635 27.7944 35.6759 28.4244 36.8617C23.6226 36.6785 19.5814 35.1896 16.3847 32.3818ZM88.1738 32.3818C84.9804 35.193 80.9359 36.6785 76.1375 36.8617C76.7674 35.6792 77.384 34.4635 77.9704 33.1845C81.1705 26.2132 82.5577 18.2826 83.1441 11.9175H97.0771C96.5141 17.0236 94.6142 26.7161 88.1738 32.3818Z" fill="white"/>
</svg>
