<svg width="47" height="47" viewBox="0 0 47 47" fill="none" xmlns="http://www.w3.org/2000/svg">
<path d="M23.3347 0C10.468 0 0 10.4965 0 23.3981C0 36.2989 10.468 46.7963 23.3347 46.7963C36.2004 46.7963 46.6694 36.2989 46.6694 23.3981C46.6694 10.4965 36.2023 0 23.3347 0ZM33.7444 18.0429C33.7548 18.2748 33.7604 18.5085 33.7604 18.7423C33.7604 25.859 28.3596 34.0624 18.4781 34.0624C15.4449 34.0624 12.6214 33.1736 10.2452 31.6449C10.6654 31.6948 11.093 31.7203 11.5264 31.7203C14.0435 31.7203 16.3585 30.8589 18.197 29.415C15.8472 29.3716 13.863 27.8146 13.1797 25.6742C13.5068 25.7365 13.8442 25.7713 14.1892 25.7713C14.6789 25.7713 15.1545 25.7072 15.6047 25.5838C13.1477 25.0899 11.297 22.9137 11.297 20.303C11.297 20.2804 11.297 20.2568 11.298 20.2352C12.0217 20.6376 12.8498 20.8808 13.7296 20.9081C12.2896 19.9439 11.3412 18.2946 11.3412 16.4266C11.3412 15.4389 11.6053 14.5133 12.0678 13.7179C14.7155 16.977 18.6745 19.1202 23.1373 19.3464C23.0452 18.9515 22.9991 18.5415 22.9991 18.1183C22.9991 15.1448 25.4035 12.733 28.369 12.733C29.9142 12.733 31.3081 13.3871 32.2894 14.4332C33.5141 14.1919 34.6608 13.7452 35.7013 13.126C35.2972 14.3842 34.4484 15.4389 33.3365 16.1061C34.424 15.9761 35.4617 15.6877 36.4213 15.2588C35.7051 16.337 34.7943 17.2861 33.7444 18.0429Z" fill="white"/>
</svg>
