<svg width="88" height="88" viewBox="0 0 88 88" fill="none" xmlns="http://www.w3.org/2000/svg">
<path d="M49.1562 31.625H12.0312C6.33583 31.625 1.71875 36.2421 1.71875 41.9375V68.4062C1.71875 74.1017 6.33583 78.7188 12.0312 78.7188H23.1995L23.0447 78.7322L30.5938 86.2812L30.5991 78.7188H49.1562C54.8517 78.7188 59.4688 74.1017 59.4688 68.4062V41.9375C59.4688 36.2421 54.8517 31.625 49.1562 31.625Z" fill="#C7EAFF"/>
<path d="M30.5941 88C30.1467 88 29.7072 87.8254 29.3784 87.4966L22.3193 80.4375H12.0312C5.39722 80.4375 0 75.0403 0 68.4062V41.9375C0 35.3035 5.39722 29.9062 12.0312 29.9062H29.3906C30.3397 29.9062 31.1094 30.6757 31.1094 31.625C31.1094 32.5743 30.3397 33.3438 29.3906 33.3438H12.0312C7.29266 33.3438 3.4375 37.1989 3.4375 41.9375V68.4062C3.4375 73.1448 7.29266 77 12.0312 77H23.1995C23.9025 77 24.5102 77.423 24.7758 78.0326L28.8781 82.1348L28.8805 78.7175C28.8812 77.7688 29.6503 77 30.5992 77H49.1562C53.8948 77 57.75 73.1448 57.75 68.4062V56.5469C57.75 55.5976 58.5197 54.8281 59.4688 54.8281C60.4178 54.8281 61.1875 55.5976 61.1875 56.5469V68.4062C61.1875 75.0403 55.7903 80.4375 49.1562 80.4375H32.3166L32.3125 86.2825C32.312 86.9773 31.8931 87.6037 31.2508 87.8694C31.0386 87.9572 30.8153 88 30.5941 88Z" fill="black"/>
<path d="M63.0188 1.71875H58.6688C45.8214 1.71875 35.4062 12.1337 35.4062 24.9813C35.4062 37.8288 45.8212 48.2439 58.6688 48.2439H63.0188C65.4 48.2439 67.6973 47.8854 69.8603 47.2208L77 54.3563V43.5741C82.6365 39.329 86.2812 32.581 86.2812 24.9812C86.2812 12.1337 75.8663 1.71875 63.0188 1.71875Z" fill="#FFBC53"/>
<path d="M77.0003 56.0751C76.5531 56.0751 76.1138 55.9005 75.785 55.572L69.3591 49.1497C67.2966 49.6894 65.1686 49.9625 63.0187 49.9625H58.6687C44.8941 49.9625 33.6875 38.7561 33.6875 24.9813C33.6875 11.2066 44.8941 0 58.6688 0H63.0188C76.7934 0 88 11.2066 88 24.9813C88 28.9716 87.0868 32.7853 85.2854 36.3167C83.6993 39.4259 81.4394 42.2091 78.7188 44.4123V54.3563C78.7188 55.0514 78.3001 55.678 77.6579 55.9441C77.4453 56.0323 77.2219 56.0751 77.0003 56.0751ZM69.8601 45.5018C70.3091 45.5018 70.748 45.678 71.0753 46.0049L75.2812 50.2086V43.5743C75.2812 43.0344 75.5349 42.526 75.9658 42.2013C81.4292 38.0866 84.5625 31.8101 84.5625 24.9813C84.5625 13.102 74.8981 3.4375 63.0188 3.4375H58.6688C46.7895 3.4375 37.125 13.102 37.125 24.9813C37.125 36.8607 46.7894 46.5252 58.6688 46.5252H63.0188C65.1777 46.5252 67.3097 46.2065 69.3555 45.5778C69.5215 45.5268 69.6917 45.5018 69.8601 45.5018Z" fill="black"/>
<path d="M61.325 32.1018C60.3759 32.1018 59.6062 31.3323 59.6062 30.383V26.2537C59.6062 24.7143 60.6598 23.4032 62.1686 23.0656C64.0307 22.649 65.2865 20.9574 65.1545 19.0432C65.0239 17.148 63.4961 15.6202 61.6007 15.4896C60.5196 15.415 59.4921 15.7781 58.706 16.5119C57.9191 17.2463 57.4857 18.2433 57.4857 19.3191C57.4857 20.2684 56.716 21.0379 55.7669 21.0379C54.8178 21.0379 54.0482 20.2684 54.0482 19.3191C54.0482 17.3097 54.8909 15.3706 56.3604 13.9989C57.8504 12.6079 59.797 11.9199 61.8368 12.06C65.4352 12.308 68.3358 15.2085 68.5838 18.8067C68.8304 22.3854 66.5069 25.5544 63.0436 26.3911V30.383C63.0437 31.3323 62.2743 32.1018 61.325 32.1018Z" fill="black"/>
<path d="M61.325 38.9005C60.873 38.9005 60.4295 38.7183 60.1098 38.3986C59.7903 38.0789 59.6062 37.6355 59.6062 37.1817C59.6062 36.7297 59.7902 36.2862 60.1098 35.9665C60.4295 35.6469 60.873 35.463 61.325 35.463C61.777 35.463 62.2205 35.6469 62.5402 35.9665C62.8597 36.2862 63.0437 36.7297 63.0437 37.1817C63.0437 37.6355 62.8598 38.0772 62.5402 38.3986C62.2205 38.7183 61.777 38.9005 61.325 38.9005Z" fill="black"/>
<path d="M47.2656 56.7188H11C10.0509 56.7188 9.28125 55.9493 9.28125 55C9.28125 54.0507 10.0509 53.2812 11 53.2812H47.2656C48.2147 53.2812 48.9844 54.0507 48.9844 55C48.9844 55.9493 48.2149 56.7188 47.2656 56.7188Z" fill="black"/>
<path d="M47.2656 66.3438C46.8136 66.3438 46.3702 66.1598 46.0505 65.8402C45.7308 65.5205 45.5469 65.077 45.5469 64.625C45.5469 64.173 45.7306 63.7295 46.0505 63.4098C46.3702 63.0902 46.8136 62.9062 47.2656 62.9062C47.7177 62.9062 48.1611 63.0902 48.4806 63.4098C48.8003 63.7295 48.9844 64.173 48.9844 64.625C48.9844 65.0788 48.8005 65.5205 48.4806 65.8402C48.1611 66.1598 47.7177 66.3438 47.2656 66.3438Z" fill="black"/>
<path d="M40.5053 66.3438H11C10.0509 66.3438 9.28125 65.5743 9.28125 64.625C9.28125 63.6757 10.0509 62.9062 11 62.9062H40.5053C41.4544 62.9062 42.224 63.6757 42.224 64.625C42.224 65.5743 41.4545 66.3438 40.5053 66.3438Z" fill="black"/>
<path d="M36.0938 47.0938H11C10.0509 47.0938 9.28125 46.3243 9.28125 45.375C9.28125 44.4257 10.0509 43.6562 11 43.6562H36.0938C37.0428 43.6562 37.8125 44.4257 37.8125 45.375C37.8125 46.3243 37.043 47.0938 36.0938 47.0938Z" fill="black"/>
</svg>
