<svg width="174" height="43" viewBox="0 0 174 43" fill="none" xmlns="http://www.w3.org/2000/svg">
<path d="M61.296 11.4H55.482V38H59.13V19.19L62.246 38H66.198L69.086 18.924V38H73.038V11.4H67.224L64.374 30.286L61.296 11.4Z" fill="white"/>
<path d="M80.2586 15.2H87.4786V11.4H76.0786V38H87.4786V34.2H80.2586V26.41H85.9966V22.61H80.2586V15.2Z" fill="white"/>
<path d="M94.2488 15.2H101.469V11.4H90.0688V38H101.469V34.2H94.2488V26.41H99.9868V22.61H94.2488V15.2Z" fill="white"/>
<path d="M102.843 15.2H107.213V38H111.393V15.2H115.763V11.4H102.843V15.2Z" fill="white"/>
<path d="M131.674 28.082V31.882C131.674 33.782 130.838 34.466 129.508 34.466C128.178 34.466 127.342 33.782 127.342 31.882V17.518C127.342 15.618 128.178 14.896 129.508 14.896C130.838 14.896 131.674 15.618 131.674 17.518V20.368H135.626V17.784C135.626 13.528 133.498 11.096 129.394 11.096C125.29 11.096 123.162 13.528 123.162 17.784V31.616C123.162 35.872 125.29 38.304 129.394 38.304C133.498 38.304 135.626 35.872 135.626 31.616V28.082H131.674Z" fill="white"/>
<path d="M138.163 38H142.343V11.4H138.163V38Z" fill="white"/>
<path d="M154.329 38H158.623V11.4H154.899V27.322L150.605 11.4H145.361V38H149.123V18.734L154.329 38Z" fill="white"/>
<path d="M165.796 15.2H173.016V11.4H161.616V38H173.016V34.2H165.796V26.41H171.534V22.61H165.796V15.2Z" fill="white"/>
<path d="M39.5657 11.531L39.3587 11.3244C39.0199 10.9865 38.4742 11.0052 38.1543 11.3526L37.5897 11.9722C37.1663 12.4322 36.4324 12.4228 36.0278 11.9534L34.9928 10.733L33.9484 11.0428C33.7602 11.0991 33.5626 10.9959 33.5062 10.8081L32.6123 7.96348C31.5961 6.74303 31.2385 5.19398 31.502 3.74821C31.5302 3.598 31.4832 3.44779 31.3703 3.33513L29.0932 1.06321C27.6725 -0.354402 25.3766 -0.354402 23.9558 1.06321L18.1786 6.82752L36.1501 24.6838L41.9274 18.9194C43.3576 17.4924 43.3576 15.2205 41.9274 13.7935L39.5657 11.531Z" fill="white"/>
<path d="M16.9742 8.12305L1.07265 24.0547C-0.357549 25.4817 -0.357549 27.7536 1.07265 29.1806L2.98271 31.0864C3.10503 31.2085 3.29322 31.2648 3.46258 31.2272C5.05273 30.8611 6.78403 31.246 8.0919 32.4101L10.8582 33.3959C11.0652 33.471 11.1781 33.6963 11.1123 33.9122L10.7829 34.898L12.0061 36.034C12.4389 36.4377 12.4201 37.123 11.9685 37.4985L11.1028 38.2308C10.8206 38.4655 10.8017 38.8973 11.0652 39.1602L11.5639 39.6578L13.8409 41.9297C15.2711 43.3567 17.5481 43.3567 18.9783 41.9297L34.9457 25.9981L16.9742 8.12305ZM18.9595 30.3166L12.6177 23.989L13.8974 22.7122L20.2392 29.0398L18.9595 30.3166ZM14.5466 20.2807L15.9015 18.9288L24.0311 27.0401L22.6761 28.392L14.5466 20.2807Z" fill="white"/>
</svg>
