<svg width="86" height="86" viewBox="0 0 86 86" fill="none" xmlns="http://www.w3.org/2000/svg">
<path d="M43.0902 51.6171H32.7746C32.4056 51.6171 32.0892 51.3008 32.0892 50.9317V23.5873C32.0892 23.2183 32.4056 22.902 32.7746 22.902H43.0902C43.4593 22.902 43.7756 23.2183 43.7756 23.5873V50.9317C43.7756 51.3008 43.4593 51.6171 43.0902 51.6171Z" fill="#3C92CA"/>
<path d="M80.6448 60.7026C80.9611 59.8766 80.5745 58.9628 79.7486 58.6289C78.9226 58.3126 78.0088 58.6992 77.6749 59.5251C76.4623 62.6005 73.4397 64.6742 70.1359 64.6742H36.7989C36.3947 64.6742 35.9905 64.8323 35.6918 65.1135L20.4731 79.6819V66.2558C20.4731 65.834 20.2974 65.4298 19.9986 65.1311C19.6999 64.8323 19.2957 64.6566 18.8739 64.6566H11.2822C6.81852 64.6566 3.1808 61.0189 3.1808 56.5552V20.6525C3.1808 16.1889 6.81852 12.5512 11.2822 12.5512H47.3957C48.2744 12.5512 48.9949 11.8306 48.9949 10.952C48.9949 10.0733 48.2744 9.35278 47.3957 9.35278H11.2822C5.06117 9.35278 0 14.414 0 20.635V56.5552C0 62.7762 5.06117 67.8374 11.2822 67.8374H17.2923V83.4075C17.2923 84.0402 17.6789 84.6201 18.2589 84.8661C18.4522 84.954 18.6806 84.9892 18.8915 84.9892C19.2957 84.9892 19.6999 84.831 19.9986 84.5498L37.4491 67.8374H70.1534C74.7401 67.855 78.9578 64.9729 80.6448 60.7026Z" fill="black"/>
<path d="M85.8993 27.9104C86.3738 24.9405 85.1437 21.9178 82.7712 20.2132C81.4181 19.2467 79.8365 18.737 78.1845 18.737H66.5333V10.4072C66.5333 6.71674 65.4437 4.04557 63.2998 2.48153C59.9081 -0.0139108 55.2687 1.40954 55.0754 1.46226C54.4076 1.67315 53.9682 2.28822 53.9682 2.97359V12.5863C53.9682 19.9847 45.3397 22.5153 44.9882 22.6208C44.953 22.6383 44.9179 22.6559 44.8827 22.6559C44.3555 21.8475 43.4417 21.3028 42.3873 21.3028H33.46C31.8256 21.3028 30.49 22.6383 30.49 24.2727V50.2287C30.49 51.8631 31.8256 53.1987 33.46 53.1987H42.3873C43.2133 53.1987 43.9513 52.8648 44.4961 52.32C45.9196 53.7435 47.8878 54.6221 50.0669 54.6221H73.5803C78.9051 54.6221 82.2967 51.8279 82.9118 46.9601L85.8993 27.9104ZM42.1764 50.0179H33.6884V24.5011H42.1764V50.0179ZM82.7537 27.4183L79.7486 46.5032C79.7486 46.5207 79.7486 46.5383 79.7486 46.5559C79.3444 49.807 77.2707 51.4589 73.5803 51.4589H50.0669C47.466 51.4589 45.3572 49.3501 45.3572 46.7492V25.7488C45.5154 25.7488 45.6735 25.7488 45.8317 25.6961C46.2886 25.5731 57.1491 22.4275 57.1491 12.5863V4.27402C58.3089 4.11586 60.1014 4.08072 61.437 5.04726C62.7199 5.99623 63.3525 7.78873 63.3525 10.4072V20.3362C63.3525 21.2149 64.073 21.9354 64.9517 21.9354H78.2021C79.1862 21.9354 80.1352 22.2341 80.926 22.8141C82.3143 23.8158 83.0348 25.6258 82.7537 27.4183Z" fill="black"/>
</svg>
