<svg width="98" height="98" viewBox="0 0 98 98" fill="none" xmlns="http://www.w3.org/2000/svg">
<path d="M10.2079 24.5001H87.7915C87.7915 28.9918 91.4667 32.6672 95.9585 32.6672V65.3338C91.4669 65.3338 87.7915 69.0086 87.7915 73.5003H10.2079C10.2079 69.009 6.5331 65.3338 2.04175 65.3338V32.6672C6.5331 32.6672 10.2079 28.9918 10.2079 24.5001Z" fill="#D12D4E"/>
<path d="M85.7498 34.7089H12.2501V63.2924H85.7498V34.7089Z" fill="#FCD051"/>
<path d="M41.7336 24.5L58.2652 7.96844C61.1772 10.8803 65.9425 10.8803 68.854 7.96844L85.3852 24.5H41.7336ZM56.2663 73.4996L39.7343 90.0315C36.823 87.1197 32.0584 87.1197 29.1465 90.0315L12.6145 73.4996H56.2663Z" fill="#ED8C18"/>
<path d="M95.9585 30.6249C92.5811 30.6249 89.8335 27.8772 89.8335 24.5C89.8335 23.3723 88.9193 22.4583 87.7917 22.4583H86.2314L70.2983 6.52466C69.9153 6.14185 69.3958 5.92651 68.8543 5.92651C68.3128 5.92651 67.7935 6.14166 67.4107 6.52466C66.3881 7.54735 65.0206 8.11046 63.56 8.11046C62.0998 8.11046 60.7322 7.54735 59.7097 6.52466C58.9121 5.72726 57.6193 5.72726 56.8219 6.52466L40.8881 22.4583H10.2079C9.08033 22.4583 8.16617 23.3725 8.16617 24.5C8.16617 27.8772 5.41891 30.6249 2.04193 30.6249C0.914158 30.6249 0 31.539 0 32.6668V65.3334C0 66.461 0.914158 67.3751 2.04173 67.3751C5.41872 67.3751 8.16598 70.1226 8.16598 73.4996C8.16598 74.6273 9.08033 75.5413 10.2077 75.5413H11.7683L27.7023 91.4753C28.101 91.874 28.6235 92.0733 29.1461 92.0733C29.6686 92.0733 30.1913 91.8738 30.5897 91.4753C31.6125 90.4526 32.9799 89.8895 34.4402 89.8895C35.9002 89.8895 37.2678 90.4526 38.2901 91.4751C38.6731 91.8579 39.1926 92.0735 39.7341 92.0735C40.2756 92.0735 40.7949 91.8583 41.1777 91.4755L57.1119 75.5415H87.7911C88.9189 75.5415 89.8329 74.6273 89.8329 73.4997C89.8329 70.1228 92.5805 67.3753 95.9579 67.3753C97.0855 67.3753 97.9998 66.4612 97.9998 65.3336V32.6668C98.0002 31.539 97.0859 30.6249 95.9585 30.6249ZM58.4206 10.7006C59.9377 11.6729 61.7068 12.1939 63.5594 12.1939C65.4123 12.1939 67.1816 11.6729 68.6987 10.7008L80.4561 22.4583H58.5052C59.1157 21.6578 59.0572 20.5104 58.3256 19.7788C57.528 18.9816 56.2355 18.9816 55.4379 19.779L52.7589 22.4583H46.6628L58.4206 10.7006ZM39.5793 87.2992C38.0622 86.3267 36.2932 85.8059 34.4406 85.8059C32.5879 85.8059 30.8188 86.3269 29.3017 87.2992L17.5438 75.5413H38.7757C38.1646 76.3419 38.2229 77.4896 38.9549 78.2212C39.3534 78.6197 39.8759 78.8189 40.3985 78.8189C40.9212 78.8189 41.4437 78.6195 41.8423 78.2206L44.5212 75.5409H51.337L39.5793 87.2992ZM93.9165 63.4965C89.9225 64.3105 86.7688 67.4641 85.955 71.4578H56.2663H12.6143H12.0448C11.2308 67.4641 8.07717 64.3109 4.08366 63.4965V34.5033C8.07736 33.6893 11.2308 30.5355 12.0448 26.5418H41.7333H85.3852H85.3894H85.955C86.769 30.5357 89.9228 33.6893 93.9167 34.5033V63.4965H93.9165Z" fill="#000003"/>
<path d="M32.6754 42.8655C32.0258 42.8655 31.3771 43.099 31.3771 43.6481V54.2356C31.3771 54.7681 32.0259 55.0348 32.6754 55.0348C33.3246 55.0348 33.9733 54.7681 33.9733 54.2356V43.6481C33.9735 43.099 33.3246 42.8655 32.6754 42.8655Z" fill="#000003"/>
<path d="M41.3664 45.1292C42.7813 45.1292 42.8314 46.1952 42.8481 46.628C42.8812 47.2275 43.4476 47.4102 44.1464 47.4102C45.0284 47.4102 45.4447 47.1771 45.4447 46.1785C45.4447 44.0643 43.6468 42.8655 41.2663 42.8655C39.085 42.8655 37.2709 43.9312 37.2709 46.7945V51.2057C37.2709 54.0689 39.0852 55.1343 41.2663 55.1343C43.6468 55.1343 45.4447 53.8693 45.4447 51.6551C45.4447 50.6559 45.0284 50.423 44.1296 50.423C43.4636 50.423 42.8977 50.5895 42.8479 51.2057C42.7981 51.8549 42.7145 52.8699 41.3827 52.8699C40.4168 52.8699 39.8679 52.3374 39.8679 51.2057V46.7945C39.8681 45.6621 40.4172 45.1292 41.3664 45.1292Z" fill="#000003"/>
<path d="M27.9291 42.8655H20.7375C20.1888 42.8655 19.9551 43.465 19.9551 44.0145C19.9551 44.6467 20.2386 45.1962 20.7375 45.1962H23.035V54.2356C23.035 54.7681 23.6839 55.0348 24.3329 55.0348C24.9826 55.0348 25.6318 54.7681 25.6318 54.2356V45.1962H27.9289C28.4285 45.1962 28.7115 44.6465 28.7115 44.0145C28.7117 43.465 28.4788 42.8655 27.9291 42.8655Z" fill="#000003"/>
<path d="M77.262 42.8655H70.0701C69.5212 42.8655 69.2877 43.465 69.2877 44.0145C69.2877 44.6467 69.5709 45.1962 70.0701 45.1962H72.3676V54.2356C72.3676 54.7681 73.0168 55.0348 73.6659 55.0348C74.3151 55.0348 74.9642 54.7681 74.9642 54.2356V45.1962H77.2617C77.7608 45.1962 78.0443 44.6465 78.0443 44.0145C78.0445 43.465 77.8112 42.8655 77.262 42.8655Z" fill="#000003"/>
<path d="M66.5067 45.1292C67.0059 45.1292 67.289 44.5968 67.289 43.9812C67.289 43.4483 67.0558 42.8655 66.5067 42.8655H60.5802C60.014 42.8655 59.4484 43.1321 59.4484 43.6646V54.2356C59.4484 54.7681 60.014 55.0348 60.5802 55.0348H66.5065C67.0554 55.0348 67.2888 54.4521 67.2888 53.9194C67.2888 53.3029 67.0057 52.7704 66.5065 52.7704H62.0452V49.9405H64.5423C65.0912 49.9405 65.3244 49.408 65.3244 48.9582C65.3244 48.4257 65.0417 47.9429 64.5423 47.9429H62.0452V45.1291L66.5067 45.1292Z" fill="#000003"/>
<path d="M53.42 48.1257L56.1505 44.6965C56.2833 44.5137 56.3168 44.3305 56.3168 44.1973C56.3168 43.5486 55.4513 42.8657 54.7854 42.8657C54.5189 42.8657 54.2858 42.9658 54.1028 43.232L50.9896 47.6432V43.6481C50.9896 43.0992 50.3403 42.8655 49.6913 42.8655C49.042 42.8655 48.3929 43.099 48.3929 43.6481V54.2356C48.3929 54.7681 49.0422 55.0347 49.6913 55.0347C50.3405 55.0347 50.9896 54.7681 50.9896 54.2356V51.2225L51.6888 50.3237L54.5358 54.6519C54.7519 55.0016 55.0851 55.1347 55.4346 55.1347C56.1836 55.1347 56.9992 54.4854 56.9992 53.8363C56.9992 53.6865 56.9494 53.5368 56.8663 53.404L53.42 48.1257Z" fill="#000003"/>
<path d="M85.75 32.6664H12.25C11.1225 32.6664 10.2083 33.5805 10.2083 34.7081V63.2915C10.2083 64.419 11.1227 65.3332 12.25 65.3332H85.7502C86.8778 65.3332 87.7919 64.4188 87.7919 63.2915V34.7083C87.7919 33.5805 86.8776 32.6664 85.75 32.6664ZM14.2918 36.75H83.7083V61.2497H14.2918V36.75Z" fill="#000003"/>
<path d="M34.8077 79.4816L34.7732 79.516C33.9758 80.3134 33.9758 81.606 34.7732 82.4036C35.1717 82.8023 35.6947 83.0017 36.217 83.0017C36.7395 83.0017 37.2623 82.8025 37.6608 82.4036L37.6952 82.3691C38.4924 81.5717 38.4924 80.2792 37.6952 79.4816C36.8978 78.6842 35.6051 78.6842 34.8077 79.4816Z" fill="#000003"/>
<path d="M61.0293 19.1166C61.5468 19.1166 62.065 18.921 62.4627 18.529L62.4972 18.4951C63.3005 17.7034 63.3099 16.4109 62.5182 15.6075C61.7267 14.8044 60.4342 14.795 59.6307 15.5865L59.5962 15.6205C58.7929 16.412 58.7837 17.7048 59.575 18.5081C59.9742 18.9133 60.5014 19.1166 61.0293 19.1166Z" fill="#000003"/>
</svg>
